<svg xmlns="http://www.w3.org/2000/svg" xmlns:xlink="http://www.w3.org/1999/xlink" width="91" zoomAndPan="magnify" viewBox="0 0 68.25 30.75" height="41" preserveAspectRatio="xMidYMid meet" version="1.0"><path fill="#ffffff" d="M 11.847656 7.921875 L 12.179688 7.566406 C 12.371094 7.847656 12.664062 8.050781 13.007812 8.050781 C 13.300781 8.050781 13.492188 7.898438 13.492188 7.65625 C 13.492188 7.042969 12 7.15625 12 6.074219 C 12 5.488281 12.472656 5.171875 13.019531 5.171875 C 13.53125 5.171875 13.875 5.347656 14.066406 5.691406 L 13.734375 6.035156 C 13.566406 5.847656 13.351562 5.65625 13.058594 5.65625 C 12.804688 5.65625 12.625 5.808594 12.625 6.011719 C 12.625 6.570312 14.152344 6.496094 14.152344 7.539062 C 14.152344 8.175781 13.683594 8.507812 13.070312 8.507812 C 12.421875 8.558594 12.039062 8.265625 11.847656 7.921875 Z M 11.847656 7.921875 " fill-opacity="1" fill-rule="nonzero"/><path fill="#ffffff" d="M 19.007812 5.742188 L 18.179688 5.742188 L 18.179688 8.484375 L 17.566406 8.484375 L 17.566406 5.742188 L 16.738281 5.742188 L 16.738281 5.222656 L 19.007812 5.222656 Z M 19.007812 5.742188 " fill-opacity="1" fill-rule="nonzero"/><path fill="#ffffff" d="M 23.554688 7.65625 L 22.410156 7.65625 L 22.128906 8.484375 L 21.515625 8.484375 L 22.664062 5.222656 L 23.339844 5.222656 L 24.484375 8.484375 L 23.824219 8.484375 Z M 23.414062 7.234375 L 22.984375 5.921875 L 22.535156 7.234375 Z M 23.414062 7.234375 " fill-opacity="1" fill-rule="nonzero"/><path fill="#ffffff" d="M 28.230469 7.285156 L 27.875 7.285156 L 27.875 8.484375 L 27.261719 8.484375 L 27.261719 5.222656 L 28.421875 5.222656 C 29.148438 5.222656 29.644531 5.515625 29.644531 6.214844 C 29.644531 6.75 29.351562 7.105469 28.882812 7.234375 L 29.722656 8.484375 L 29.007812 8.484375 Z M 27.875 6.839844 L 28.332031 6.839844 C 28.742188 6.839844 28.96875 6.660156 28.96875 6.277344 C 28.96875 5.898438 28.726562 5.730469 28.332031 5.730469 L 27.875 5.730469 Z M 27.875 6.839844 " fill-opacity="1" fill-rule="nonzero"/><path fill="#ffffff" d="M 34.933594 7.566406 C 34.933594 8.175781 34.488281 8.484375 33.796875 8.484375 L 32.574219 8.484375 L 32.574219 5.222656 L 33.671875 5.222656 C 34.332031 5.222656 34.792969 5.488281 34.792969 6.085938 C 34.792969 6.484375 34.589844 6.710938 34.269531 6.8125 C 34.664062 6.902344 34.933594 7.121094 34.933594 7.566406 Z M 33.175781 5.707031 L 33.175781 6.621094 L 33.59375 6.621094 C 33.925781 6.621094 34.144531 6.496094 34.144531 6.164062 C 34.144531 5.832031 33.925781 5.707031 33.59375 5.707031 Z M 34.269531 7.527344 C 34.269531 7.195312 34.039062 7.054688 33.722656 7.054688 L 33.175781 7.054688 L 33.175781 8.011719 L 33.722656 8.011719 C 34.039062 8 34.269531 7.847656 34.269531 7.527344 Z M 34.269531 7.527344 " fill-opacity="1" fill-rule="nonzero"/><path fill="#ffffff" d="M 37.800781 7.273438 L 37.800781 5.234375 L 38.410156 5.234375 L 38.410156 7.207031 C 38.410156 7.730469 38.664062 8 39.058594 8 C 39.480469 8 39.734375 7.71875 39.734375 7.207031 L 39.734375 5.222656 L 40.347656 5.222656 L 40.347656 7.261719 C 40.347656 8.113281 39.835938 8.546875 39.058594 8.546875 C 38.296875 8.558594 37.800781 8.125 37.800781 7.273438 Z M 37.800781 7.273438 " fill-opacity="1" fill-rule="nonzero"/><path fill="#ffffff" d="M 43.214844 6.851562 C 43.214844 5.808594 43.886719 5.15625 44.78125 5.15625 C 45.25 5.15625 45.582031 5.296875 45.824219 5.488281 L 45.648438 6.035156 C 45.46875 5.871094 45.214844 5.742188 44.871094 5.742188 C 44.359375 5.742188 43.863281 6.125 43.863281 6.863281 C 43.863281 7.605469 44.335938 7.984375 44.871094 7.984375 C 45.277344 7.984375 45.53125 7.832031 45.722656 7.640625 L 45.902344 8.175781 C 45.660156 8.40625 45.316406 8.570312 44.792969 8.570312 C 43.886719 8.558594 43.214844 7.910156 43.214844 6.851562 Z M 43.214844 6.851562 " fill-opacity="1" fill-rule="nonzero"/><path fill="#ffffff" d="M 49.621094 7.183594 L 49.328125 7.566406 L 49.328125 8.496094 L 48.71875 8.496094 L 48.71875 5.222656 L 49.328125 5.222656 L 49.328125 6.75 L 50.488281 5.222656 L 51.1875 5.222656 L 50.042969 6.6875 L 51.277344 8.484375 L 50.527344 8.484375 Z M 49.621094 7.183594 " fill-opacity="1" fill-rule="nonzero"/><path fill="#ffffff" d="M 53.75 7.921875 L 54.082031 7.566406 C 54.273438 7.847656 54.566406 8.050781 54.910156 8.050781 C 55.203125 8.050781 55.394531 7.898438 55.394531 7.65625 C 55.394531 7.042969 53.902344 7.15625 53.902344 6.074219 C 53.902344 5.488281 54.375 5.171875 54.921875 5.171875 C 55.429688 5.171875 55.773438 5.347656 55.964844 5.691406 L 55.632812 6.035156 C 55.46875 5.847656 55.253906 5.65625 54.960938 5.65625 C 54.703125 5.65625 54.527344 5.808594 54.527344 6.011719 C 54.527344 6.570312 56.054688 6.496094 56.054688 7.539062 C 56.054688 8.175781 55.582031 8.507812 54.972656 8.507812 C 54.308594 8.558594 53.925781 8.265625 53.75 7.921875 Z M 53.75 7.921875 " fill-opacity="1" fill-rule="nonzero"/><path fill="#ffffff" d="M 58.398438 5.882812 C 58.398438 6.292969 58.082031 6.519531 57.761719 6.519531 C 57.445312 6.519531 57.125 6.277344 57.125 5.882812 C 57.125 5.488281 57.445312 5.246094 57.761719 5.246094 C 58.09375 5.246094 58.398438 5.488281 58.398438 5.882812 Z M 58.273438 5.882812 C 58.273438 5.527344 58.003906 5.363281 57.761719 5.363281 C 57.519531 5.363281 57.253906 5.527344 57.253906 5.882812 C 57.253906 6.242188 57.519531 6.40625 57.761719 6.40625 C 58.003906 6.417969 58.273438 6.253906 58.273438 5.882812 Z M 57.890625 5.960938 L 58.042969 6.175781 L 57.875 6.175781 L 57.761719 5.972656 L 57.699219 5.972656 L 57.699219 6.175781 L 57.558594 6.175781 L 57.558594 5.589844 L 57.800781 5.589844 C 57.941406 5.589844 58.03125 5.65625 58.03125 5.769531 C 58.015625 5.871094 57.964844 5.933594 57.890625 5.960938 Z M 57.699219 5.882812 L 57.761719 5.882812 C 57.824219 5.882812 57.863281 5.847656 57.863281 5.792969 C 57.863281 5.730469 57.824219 5.707031 57.761719 5.707031 L 57.699219 5.707031 Z M 57.699219 5.882812 " fill-opacity="1" fill-rule="nonzero"/><path fill="#ffffff" d="M 11.183594 12.023438 L 11.183594 18.714844 L 9.9375 18.714844 L 9.9375 15.769531 L 7.046875 15.769531 L 7.046875 18.714844 L 5.796875 18.714844 L 5.796875 12.023438 L 7.046875 12.023438 L 7.046875 14.761719 L 9.9375 14.761719 L 9.9375 12.023438 Z M 11.183594 12.023438 " fill-opacity="1" fill-rule="nonzero"/><path fill="#ffffff" d="M 13.976562 12.023438 L 15.222656 12.023438 L 15.222656 18.714844 L 13.976562 18.714844 Z M 13.976562 12.023438 " fill-opacity="1" fill-rule="nonzero"/><path fill="#ffffff" d="M 17.441406 17.566406 L 18.117188 16.839844 C 18.511719 17.402344 19.109375 17.832031 19.824219 17.832031 C 20.421875 17.832031 20.816406 17.515625 20.816406 17.03125 C 20.816406 15.769531 17.746094 16.011719 17.746094 13.796875 C 17.746094 12.585938 18.714844 11.949219 19.835938 11.949219 C 20.878906 11.949219 21.582031 12.304688 21.976562 13.019531 L 21.300781 13.730469 C 20.957031 13.347656 20.523438 12.953125 19.898438 12.953125 C 19.378906 12.953125 19.007812 13.261719 19.007812 13.695312 C 19.007812 14.851562 22.140625 14.6875 22.140625 16.839844 C 22.140625 18.164062 21.171875 18.839844 19.914062 18.839844 C 18.601562 18.867188 17.808594 18.253906 17.441406 17.566406 Z M 17.441406 17.566406 " fill-opacity="1" fill-rule="nonzero"/><path fill="#ffffff" d="M 28.410156 13.09375 L 26.703125 13.09375 L 26.703125 18.726562 L 25.453125 18.726562 L 25.453125 13.09375 L 23.746094 13.09375 L 23.746094 12.023438 L 28.410156 12.023438 Z M 28.410156 13.09375 " fill-opacity="1" fill-rule="nonzero"/><path fill="#ffffff" d="M 29.988281 15.375 C 29.988281 13.273438 31.554688 11.882812 33.351562 11.882812 C 35.148438 11.882812 36.714844 13.273438 36.714844 15.375 C 36.714844 17.476562 35.148438 18.867188 33.351562 18.867188 C 31.542969 18.867188 29.988281 17.476562 29.988281 15.375 Z M 35.390625 15.375 C 35.390625 13.808594 34.359375 13.042969 33.339844 13.042969 C 32.320312 13.042969 31.300781 13.808594 31.300781 15.375 C 31.300781 16.941406 32.320312 17.707031 33.339844 17.707031 C 34.371094 17.707031 35.390625 16.941406 35.390625 15.375 Z M 35.390625 15.375 " fill-opacity="1" fill-rule="nonzero"/><path fill="#ffffff" d="M 41.085938 16.253906 L 40.347656 16.253906 L 40.347656 18.714844 L 39.097656 18.714844 L 39.097656 12.023438 L 41.480469 12.023438 C 42.984375 12.023438 43.976562 12.636719 43.976562 14.0625 C 43.976562 15.171875 43.378906 15.882812 42.398438 16.152344 L 44.128906 18.726562 L 42.664062 18.726562 Z M 40.347656 15.347656 L 41.300781 15.347656 C 42.15625 15.347656 42.628906 14.96875 42.628906 14.203125 C 42.628906 13.425781 42.144531 13.09375 41.300781 13.09375 L 40.347656 13.09375 Z M 40.347656 15.347656 " fill-opacity="1" fill-rule="nonzero"/><path fill="#ffffff" d="M 46.460938 12.023438 L 47.710938 12.023438 L 47.710938 18.714844 L 46.460938 18.714844 Z M 46.460938 12.023438 " fill-opacity="1" fill-rule="nonzero"/><path fill="#ffffff" d="M 54.042969 17.019531 L 51.671875 17.019531 L 51.113281 18.726562 L 49.863281 18.726562 L 52.234375 12.023438 L 53.621094 12.023438 L 55.992188 18.714844 L 54.617188 18.714844 Z M 53.761719 16.140625 L 52.871094 13.4375 L 51.964844 16.140625 Z M 53.761719 16.140625 " fill-opacity="1" fill-rule="nonzero"/><path fill="#ffffff" d="M 57.496094 17.566406 L 58.167969 16.839844 C 58.566406 17.402344 59.164062 17.832031 59.878906 17.832031 C 60.476562 17.832031 60.871094 17.515625 60.871094 17.03125 C 60.871094 15.769531 57.800781 16.011719 57.800781 13.796875 C 57.800781 12.585938 58.769531 11.949219 59.890625 11.949219 C 60.933594 11.949219 61.636719 12.304688 62.03125 13.019531 L 61.355469 13.730469 C 61.011719 13.347656 60.578125 12.953125 59.953125 12.953125 C 59.429688 12.953125 59.0625 13.261719 59.0625 13.695312 C 59.0625 14.851562 62.195312 14.6875 62.195312 16.839844 C 62.195312 18.164062 61.226562 18.839844 59.964844 18.839844 C 58.652344 18.867188 57.863281 18.253906 57.496094 17.566406 Z M 57.496094 17.566406 " fill-opacity="1" fill-rule="nonzero"/><path fill="#ffffff" d="M 9.121094 25.171875 L 9.121094 25.695312 L 7.441406 25.695312 L 7.441406 22.433594 L 8.050781 22.433594 L 8.050781 25.171875 Z M 9.121094 25.171875 " fill-opacity="1" fill-rule="nonzero"/><path fill="#ffffff" d="M 13.03125 24.851562 L 11.886719 24.851562 L 11.605469 25.679688 L 10.996094 25.679688 L 12.140625 22.421875 L 12.816406 22.421875 L 13.960938 25.679688 L 13.289062 25.679688 Z M 12.894531 24.433594 L 12.460938 23.121094 L 12.011719 24.433594 Z M 12.894531 24.433594 " fill-opacity="1" fill-rule="nonzero"/><path fill="#ffffff" d="M 17.835938 22.941406 L 17.007812 22.941406 L 17.007812 25.679688 L 16.394531 25.679688 L 16.394531 22.941406 L 15.566406 22.941406 L 15.566406 22.421875 L 17.835938 22.421875 Z M 17.835938 22.941406 " fill-opacity="1" fill-rule="nonzero"/><path fill="#ffffff" d="M 20 22.433594 L 20.613281 22.433594 L 20.613281 25.695312 L 20 25.695312 Z M 20 22.433594 " fill-opacity="1" fill-rule="nonzero"/><path fill="#ffffff" d="M 25.671875 22.433594 L 25.671875 25.695312 L 25.058594 25.695312 L 23.582031 23.402344 L 23.582031 25.695312 L 23.019531 25.695312 L 23.019531 22.433594 L 23.65625 22.433594 L 25.109375 24.574219 L 25.109375 22.433594 Z M 25.671875 22.433594 " fill-opacity="1" fill-rule="nonzero"/><path fill="#ffffff" d="M 32.421875 24.851562 L 31.277344 24.851562 L 30.996094 25.679688 L 30.382812 25.679688 L 31.53125 22.421875 L 32.207031 22.421875 L 33.351562 25.679688 L 32.675781 25.679688 Z M 32.28125 24.433594 L 31.847656 23.121094 L 31.402344 24.433594 Z M 32.28125 24.433594 " fill-opacity="1" fill-rule="nonzero"/><path fill="#ffffff" d="M 38.640625 25.695312 L 38.347656 23.402344 L 37.492188 25.695312 L 37.074219 25.695312 L 36.207031 23.386719 L 35.925781 25.695312 L 35.367188 25.695312 L 35.761719 22.433594 L 36.398438 22.433594 L 37.300781 24.765625 L 38.207031 22.433594 L 38.855469 22.433594 L 39.25 25.695312 Z M 38.640625 25.695312 " fill-opacity="1" fill-rule="nonzero"/><path fill="#ffffff" d="M 42.167969 22.941406 L 42.167969 23.769531 L 43.199219 23.769531 L 43.199219 24.253906 L 42.167969 24.253906 L 42.167969 25.183594 L 43.378906 25.183594 L 43.378906 25.695312 L 41.558594 25.695312 L 41.558594 22.433594 L 43.378906 22.433594 L 43.378906 22.941406 Z M 42.167969 22.941406 " fill-opacity="1" fill-rule="nonzero"/><path fill="#ffffff" d="M 46.601562 24.496094 L 46.246094 24.496094 L 46.246094 25.695312 L 45.632812 25.695312 L 45.632812 22.433594 L 46.792969 22.433594 C 47.519531 22.433594 48.015625 22.726562 48.015625 23.425781 C 48.015625 23.960938 47.722656 24.320312 47.25 24.445312 L 48.09375 25.695312 L 47.378906 25.695312 Z M 46.246094 24.050781 L 46.703125 24.050781 C 47.113281 24.050781 47.339844 23.871094 47.339844 23.492188 C 47.339844 23.109375 47.097656 22.941406 46.703125 22.941406 L 46.246094 22.941406 Z M 46.246094 24.050781 " fill-opacity="1" fill-rule="nonzero"/><path fill="#ffffff" d="M 50.269531 22.433594 L 50.882812 22.433594 L 50.882812 25.695312 L 50.269531 25.695312 Z M 50.269531 22.433594 " fill-opacity="1" fill-rule="nonzero"/><path fill="#ffffff" d="M 53.097656 24.0625 C 53.097656 23.019531 53.773438 22.371094 54.667969 22.371094 C 55.136719 22.371094 55.46875 22.507812 55.710938 22.699219 L 55.53125 23.25 C 55.355469 23.082031 55.097656 22.957031 54.753906 22.957031 C 54.246094 22.957031 53.75 23.335938 53.75 24.078125 C 53.75 24.816406 54.21875 25.199219 54.753906 25.199219 C 55.164062 25.199219 55.417969 25.042969 55.609375 24.851562 L 55.789062 25.386719 C 55.546875 25.617188 55.203125 25.785156 54.679688 25.785156 C 53.773438 25.757812 53.097656 25.109375 53.097656 24.0625 Z M 53.097656 24.0625 " fill-opacity="1" fill-rule="nonzero"/><path fill="#ffffff" d="M 59.660156 24.851562 L 58.515625 24.851562 L 58.234375 25.679688 L 57.621094 25.679688 L 58.769531 22.421875 L 59.445312 22.421875 L 60.589844 25.679688 L 59.914062 25.679688 Z M 59.519531 24.433594 L 59.085938 23.121094 L 58.640625 24.433594 Z M 59.519531 24.433594 " fill-opacity="1" fill-rule="nonzero"/></svg>