<svg xmlns="http://www.w3.org/2000/svg" xmlns:xlink="http://www.w3.org/1999/xlink" width="50" zoomAndPan="magnify" viewBox="0 0 37.5 37.499999" height="50" preserveAspectRatio="xMidYMid meet" version="1.0"><defs><clipPath id="60ff906f0e"><path d="M 0 0 L 37.007812 0 L 37.007812 37.007812 L 0 37.007812 Z M 0 0 " clip-rule="nonzero"/></clipPath></defs><g clip-path="url(#60ff906f0e)"><path fill="#109874" d="M 18.503906 0 C 28.707031 0 37.007812 8.300781 37.007812 18.503906 C 37.007812 28.707031 28.707031 37.007812 18.503906 37.007812 C 8.300781 37.007812 0 28.707031 0 18.503906 C 0 8.300781 8.300781 0 18.503906 0 Z M 23.128906 7.710938 L 13.878906 7.710938 C 10.472656 7.710938 7.710938 10.472656 7.710938 13.878906 L 7.710938 23.128906 C 7.710938 26.535156 10.472656 29.296875 13.878906 29.296875 L 23.128906 29.296875 C 26.535156 29.296875 29.296875 26.535156 29.296875 23.128906 L 29.296875 13.878906 C 29.296875 10.472656 26.535156 7.710938 23.128906 7.710938 Z M 22.765625 9.613281 C 25.320312 9.613281 27.390625 11.683594 27.390625 14.242188 L 27.390625 22.765625 L 27.382812 23.039062 C 27.242188 25.464844 25.230469 27.390625 22.765625 27.390625 L 14.242188 27.390625 L 13.96875 27.382812 C 11.539062 27.242188 9.613281 25.230469 9.613281 22.765625 L 9.613281 14.242188 L 9.621094 13.96875 C 9.761719 11.539062 11.777344 9.613281 14.242188 9.613281 Z M 18.1875 13.425781 C 15.207031 13.425781 12.789062 15.839844 12.789062 18.820312 C 12.789062 21.800781 15.207031 24.21875 18.1875 24.21875 C 21.167969 24.21875 23.582031 21.800781 23.582031 18.820312 C 23.582031 15.839844 21.167969 13.425781 18.1875 13.425781 Z M 18.1875 15.328125 C 20.113281 15.328125 21.679688 16.890625 21.679688 18.820312 C 21.679688 20.75 20.113281 22.3125 18.1875 22.3125 C 16.257812 22.3125 14.695312 20.75 14.695312 18.820312 C 14.695312 16.890625 16.257812 15.328125 18.1875 15.328125 Z M 24.21875 11.519531 C 23.515625 11.519531 22.949219 12.085938 22.949219 12.789062 C 22.949219 13.492188 23.515625 14.058594 24.21875 14.058594 C 24.917969 14.058594 25.488281 13.492188 25.488281 12.789062 C 25.488281 12.085938 24.917969 11.519531 24.21875 11.519531 Z M 24.21875 11.519531 " fill-opacity="1" fill-rule="nonzero"/></g></svg>