<svg xmlns="http://www.w3.org/2000/svg" xmlns:xlink="http://www.w3.org/1999/xlink" width="50" zoomAndPan="magnify" viewBox="0 0 37.5 37.499999" height="50" preserveAspectRatio="xMidYMid meet" version="1.0"><defs><clipPath id="69c0dfda3f"><path d="M 0 0 L 37.007812 0 L 37.007812 37.007812 L 0 37.007812 Z M 0 0 " clip-rule="nonzero"/></clipPath></defs><g clip-path="url(#69c0dfda3f)"><path fill="#109874" d="M 18.503906 0 C 8.328125 0 0 8.328125 0 18.503906 C 0 28.679688 8.328125 37.007812 18.503906 37.007812 C 28.679688 37.007812 37.007812 28.679688 37.007812 18.503906 C 37.007812 8.328125 28.679688 0 18.503906 0 Z M 12.257812 9.597656 C 13.414062 9.597656 14.6875 10.753906 14.6875 11.910156 C 14.6875 13.53125 13.644531 14.339844 12.375 14.339844 C 10.871094 14.339844 10.0625 13.414062 9.945312 12.027344 C 9.828125 10.640625 10.871094 9.714844 12.257812 9.597656 Z M 14.109375 16.652344 L 14.109375 26.25 C 14.109375 26.367188 14.109375 26.597656 14.109375 26.714844 C 14.109375 27.175781 13.878906 27.40625 13.414062 27.40625 C 12.722656 27.40625 11.910156 27.40625 11.21875 27.40625 C 10.640625 27.40625 10.523438 27.175781 10.523438 26.597656 C 10.523438 25.09375 10.523438 23.707031 10.523438 22.203125 L 10.523438 16.652344 C 10.523438 16.421875 10.523438 16.191406 10.523438 15.960938 C 10.523438 15.613281 10.753906 15.378906 11.101562 15.378906 C 11.910156 15.378906 12.605469 15.378906 13.414062 15.378906 C 13.878906 15.378906 14.109375 15.613281 14.109375 16.074219 C 14.109375 16.421875 14.109375 16.539062 14.109375 16.652344 Z M 15.84375 16.769531 C 15.84375 16.539062 15.84375 16.421875 15.84375 16.191406 C 15.84375 15.726562 16.074219 15.496094 16.539062 15.496094 C 17.347656 15.496094 18.15625 15.496094 18.964844 15.496094 C 19.429688 15.496094 19.542969 15.726562 19.660156 16.304688 C 19.660156 16.421875 19.773438 16.652344 19.773438 16.769531 C 19.890625 16.652344 20.007812 16.652344 20.121094 16.539062 C 21.164062 15.148438 24.167969 14.917969 25.90625 16.074219 C 26.484375 16.539062 26.828125 17.117188 27.175781 17.808594 C 27.40625 18.503906 27.640625 19.3125 27.640625 20.121094 C 27.640625 21.164062 27.640625 22.203125 27.640625 23.128906 C 27.640625 24.285156 27.640625 25.328125 27.640625 26.484375 C 27.640625 27.292969 27.523438 27.40625 26.714844 27.40625 C 26.136719 27.40625 25.558594 27.40625 24.980469 27.40625 C 23.9375 27.40625 23.824219 27.292969 23.824219 26.25 C 23.824219 24.515625 23.824219 22.667969 23.824219 20.933594 C 23.824219 20.46875 23.707031 20.007812 23.589844 19.660156 C 23.359375 18.851562 22.667969 18.503906 21.855469 18.503906 C 21.046875 18.386719 20.46875 18.851562 20.121094 19.542969 C 19.890625 20.007812 19.773438 20.585938 19.773438 21.164062 C 19.773438 22.78125 19.773438 24.402344 19.773438 26.019531 C 19.773438 26.25 19.773438 26.484375 19.773438 26.714844 C 19.773438 27.175781 19.542969 27.40625 19.082031 27.40625 C 18.273438 27.40625 17.578125 27.40625 16.769531 27.40625 C 16.304688 27.40625 16.074219 27.175781 16.074219 26.714844 C 16.074219 26.484375 16.074219 26.367188 16.074219 26.136719 L 16.074219 16.769531 Z M 15.84375 16.769531 " fill-opacity="1" fill-rule="nonzero"/></g></svg>