<svg xmlns="http://www.w3.org/2000/svg" xmlns:xlink="http://www.w3.org/1999/xlink" width="50" zoomAndPan="magnify" viewBox="0 0 37.5 37.499999" height="50" preserveAspectRatio="xMidYMid meet" version="1.0"><defs><clipPath id="14943b9ef1"><path d="M 0 0 L 37.007812 0 L 37.007812 37.007812 L 0 37.007812 Z M 0 0 " clip-rule="nonzero"/></clipPath></defs><g clip-path="url(#14943b9ef1)"><path fill="#109874" d="M 18.503906 0 C 28.707031 0 37.007812 8.300781 37.007812 18.503906 C 37.007812 28.707031 28.707031 37.007812 18.503906 37.007812 C 8.300781 37.007812 0 28.707031 0 18.503906 C 0 8.300781 8.300781 0 18.503906 0 Z M 24.933594 10.792969 L 13.617188 10.792969 C 11.207031 10.792969 9.25 12.726562 9.25 15.109375 L 9.25 20.355469 C 9.25 22.738281 11.207031 24.671875 13.617188 24.671875 L 24.933594 24.671875 C 27.34375 24.671875 29.296875 22.738281 29.296875 20.355469 L 29.296875 15.109375 C 29.296875 12.726562 27.34375 10.792969 24.933594 10.792969 Z M 17.464844 14.308594 L 22.46875 17.5 C 22.6875 17.636719 22.652344 17.992188 22.425781 18.128906 L 17.457031 21.15625 C 17.242188 21.289062 17.046875 21.113281 17.046875 20.839844 L 17.046875 14.625 C 17.046875 14.347656 17.246094 14.175781 17.464844 14.308594 Z M 17.464844 14.308594 " fill-opacity="1" fill-rule="nonzero"/></g></svg>