<svg xmlns="http://www.w3.org/2000/svg" xmlns:xlink="http://www.w3.org/1999/xlink" width="50" zoomAndPan="magnify" viewBox="0 0 37.5 37.499999" height="50" preserveAspectRatio="xMidYMid meet" version="1.0"><defs><clipPath id="072a5e4189"><path d="M 0 0 L 37.007812 0 L 37.007812 37.007812 L 0 37.007812 Z M 0 0 " clip-rule="nonzero"/></clipPath></defs><g clip-path="url(#072a5e4189)"><path fill="#109874" d="M 18.503906 0 C 28.707031 0 37.007812 8.300781 37.007812 18.503906 C 37.007812 28.707031 28.707031 37.007812 18.503906 37.007812 C 8.300781 37.007812 0 28.707031 0 18.503906 C 0 8.300781 8.300781 0 18.503906 0 Z M 23.753906 7.402344 L 19.703125 7.402344 C 17.324219 7.402344 15.398438 9.191406 15.398438 11.402344 L 15.398438 14.570312 L 13.253906 14.570312 C 13.085938 14.570312 12.953125 14.695312 12.953125 14.847656 L 12.953125 18.136719 C 12.953125 18.289062 13.085938 18.414062 13.253906 18.414062 L 15.398438 18.414062 L 15.398438 29.324219 C 15.398438 29.480469 15.535156 29.605469 15.699219 29.605469 L 19.988281 29.605469 C 20.15625 29.605469 20.289062 29.480469 20.289062 29.324219 L 20.289062 18.414062 L 23.402344 18.414062 C 23.558594 18.414062 23.6875 18.304688 23.699219 18.160156 L 24 14.871094 C 24.015625 14.710938 23.875 14.570312 23.699219 14.570312 L 20.289062 14.570312 L 20.289062 12.238281 C 20.289062 11.691406 20.769531 11.246094 21.355469 11.246094 L 23.753906 11.246094 C 23.917969 11.246094 24.054688 11.121094 24.054688 10.96875 L 24.054688 7.679688 C 24.054688 7.527344 23.917969 7.402344 23.753906 7.402344 Z M 23.753906 7.402344 " fill-opacity="1" fill-rule="nonzero"/></g></svg>