<svg xmlns="http://www.w3.org/2000/svg" xmlns:xlink="http://www.w3.org/1999/xlink" width="50" zoomAndPan="magnify" viewBox="0 0 37.5 37.499999" height="50" preserveAspectRatio="xMidYMid meet" version="1.0"><defs><clipPath id="c7f33956d6"><path d="M 0 0 L 37.007812 0 L 37.007812 37.007812 L 0 37.007812 Z M 0 0 " clip-rule="nonzero"/></clipPath></defs><g clip-path="url(#c7f33956d6)"><path fill="#109874" d="M 18.503906 0 C 28.722656 0 37.007812 8.285156 37.007812 18.503906 C 37.007812 28.722656 28.722656 37.007812 18.503906 37.007812 C 8.285156 37.007812 0 28.722656 0 18.503906 C 0 8.285156 8.285156 0 18.503906 0 Z M 17.066406 21.585938 C 15.34375 21.589844 13.265625 21.875 11.5625 22.351562 C 11.007812 22.503906 10.703125 23.027344 10.816406 23.628906 C 10.925781 24.203125 11.40625 24.546875 11.949219 24.410156 C 13.167969 24.09375 14.398438 23.867188 15.644531 23.761719 C 17.136719 23.636719 18.617188 23.695312 20.089844 24.003906 C 21.769531 24.355469 23.34375 25.023438 24.808594 26.042969 C 25.273438 26.371094 25.824219 26.207031 26.085938 25.6875 C 26.34375 25.175781 26.199219 24.550781 25.738281 24.238281 C 25.324219 23.960938 24.910156 23.6875 24.480469 23.445312 C 22.140625 22.132812 19.652344 21.589844 17.066406 21.585938 Z M 15.632812 16.960938 L 15.066406 16.96875 C 13.390625 17.035156 11.746094 17.273438 10.140625 17.71875 C 9.46875 17.90625 9.113281 18.484375 9.300781 19.074219 C 9.492188 19.664062 10.140625 19.960938 10.828125 19.792969 C 11.394531 19.652344 11.960938 19.515625 12.539062 19.414062 C 14.777344 19.03125 17.027344 19.023438 19.28125 19.328125 C 21.644531 19.648438 23.886719 20.285156 25.945312 21.421875 C 26.535156 21.746094 27.242188 21.578125 27.589844 21.042969 C 27.921875 20.539062 27.742188 19.882812 27.160156 19.574219 C 26.601562 19.277344 26.035156 18.984375 25.453125 18.738281 C 22.519531 17.496094 19.414062 16.964844 16.199219 16.964844 C 15.820312 16.964844 15.441406 16.953125 15.066406 16.96875 Z M 17.058594 10.816406 C 15.757812 10.761719 14.453125 10.804688 13.15625 10.9375 C 11.65625 11.089844 10.171875 11.355469 8.726562 11.835938 C 7.96875 12.085938 7.550781 12.929688 7.765625 13.738281 C 7.988281 14.566406 8.757812 15.035156 9.527344 14.789062 C 11.367188 14.199219 13.25 13.953125 15.160156 13.890625 C 17.175781 13.828125 19.179688 13.988281 21.164062 14.398438 C 23.277344 14.832031 25.3125 15.519531 27.1875 16.714844 C 27.386719 16.839844 27.628906 16.878906 27.851562 16.960938 C 27.859375 16.949219 27.863281 16.9375 27.867188 16.921875 C 27.960938 16.914062 28.054688 16.910156 28.148438 16.886719 C 28.753906 16.75 29.179688 16.257812 29.28125 15.582031 C 29.367188 14.996094 29.101562 14.355469 28.582031 14.046875 C 27.875 13.632812 27.164062 13.21875 26.425781 12.882812 C 23.433594 11.519531 20.285156 10.957031 17.058594 10.816406 Z M 17.058594 10.816406 " fill-opacity="1" fill-rule="nonzero"/></g></svg>