<svg xmlns="http://www.w3.org/2000/svg" xmlns:xlink="http://www.w3.org/1999/xlink" width="50" zoomAndPan="magnify" viewBox="0 0 37.5 37.499999" height="50" preserveAspectRatio="xMidYMid meet" version="1.0"><defs><clipPath id="2c0679c8f6"><path d="M 0 0 L 37.007812 0 L 37.007812 37.007812 L 0 37.007812 Z M 0 0 " clip-rule="nonzero"/></clipPath></defs><g clip-path="url(#2c0679c8f6)"><path fill="#109874" d="M 18.503906 0 C 28.707031 0 37.007812 8.300781 37.007812 18.503906 C 37.007812 28.707031 28.707031 37.007812 18.503906 37.007812 C 8.300781 37.007812 0 28.707031 0 18.503906 C 0 8.300781 8.300781 0 18.503906 0 Z M 21.484375 9.261719 C 20.890625 9.300781 20.3125 9.472656 19.789062 9.753906 C 19.261719 10.035156 18.792969 10.425781 18.421875 10.898438 C 18.035156 11.390625 17.75 11.96875 17.605469 12.582031 C 17.460938 13.171875 17.476562 13.757812 17.558594 14.355469 C 17.574219 14.453125 17.566406 14.46875 17.476562 14.453125 C 14.175781 13.949219 11.4375 12.734375 9.210938 10.132812 C 9.117188 10.019531 9.0625 10.019531 8.984375 10.140625 C 8.011719 11.640625 8.484375 14.046875 9.699219 15.226562 C 9.863281 15.386719 10.027344 15.542969 10.207031 15.6875 C 10.140625 15.699219 9.332031 15.609375 8.613281 15.226562 C 8.515625 15.164062 8.46875 15.199219 8.457031 15.3125 C 8.449219 15.476562 8.464844 15.625 8.484375 15.800781 C 8.671875 17.320312 9.695312 18.722656 11.097656 19.269531 C 11.261719 19.34375 11.449219 19.40625 11.625 19.4375 C 11.308594 19.507812 10.980469 19.5625 10.0625 19.488281 C 9.949219 19.464844 9.90625 19.523438 9.949219 19.636719 C 10.636719 21.5625 12.121094 22.136719 13.234375 22.460938 C 13.382812 22.488281 13.535156 22.488281 13.683594 22.527344 C 13.671875 22.539062 13.664062 22.539062 13.65625 22.554688 C 13.285156 23.128906 12.007812 23.5625 11.414062 23.773438 C 10.328125 24.164062 9.148438 24.339844 8.003906 24.222656 C 7.820312 24.195312 7.78125 24.195312 7.730469 24.222656 C 7.679688 24.253906 7.726562 24.300781 7.785156 24.347656 C 8.015625 24.507812 8.253906 24.644531 8.492188 24.78125 C 9.222656 25.175781 9.980469 25.492188 10.773438 25.71875 C 14.867188 26.878906 19.480469 26.023438 22.554688 22.886719 C 24.96875 20.421875 25.816406 17.023438 25.816406 13.621094 C 25.816406 13.488281 25.96875 13.414062 26.058594 13.34375 C 26.6875 12.859375 27.1875 12.277344 27.65625 11.632812 C 27.742188 11.515625 27.753906 11.410156 27.753906 11.34375 L 27.753906 11.285156 C 27.753906 11.230469 27.761719 11.246094 27.679688 11.285156 C 27.042969 11.582031 26.34375 11.761719 25.65625 11.878906 C 25.980469 11.824219 26.460938 11.214844 26.652344 10.96875 C 26.949219 10.597656 27.191406 10.167969 27.328125 9.710938 C 27.347656 9.671875 27.359375 9.628906 27.324219 9.601562 C 27.28125 9.582031 27.25 9.59375 27.21875 9.609375 C 26.449219 10.03125 25.65625 10.339844 24.8125 10.554688 C 24.742188 10.574219 24.691406 10.554688 24.644531 10.511719 C 24.574219 10.429688 24.511719 10.351562 24.4375 10.289062 C 24.082031 9.980469 23.699219 9.734375 23.269531 9.554688 C 22.707031 9.320312 22.089844 9.21875 21.484375 9.261719 Z M 21.484375 9.261719 " fill-opacity="1" fill-rule="nonzero"/></g></svg>